<svg width="780" height="135" viewBox="0 0 780 135" fill="none" xmlns="http://www.w3.org/2000/svg"><path d="M35.854 52.816H87.39c-4.5-16.288-18.201-28.105-35.68-28.105-12.616 0-23.424 4.831-32.974 13.308L3.43 18.976C14.733 8.41 28.836 0 51.538 0c38.733 0 65.761 29.183 65.761 64.806 0 36.329-27.564 64.806-64.677 64.806-24.335 0-39.644-7.332-52.622-21.118L17.117 90.05c10.098 9.129 19.822 14.864 34.595 14.864 18.201 0 31.715-12.349 35.867-29.183H35.854V52.816zM138.38 2.142h51.537c30.095 0 48.296 17.725 48.296 43.688 0 29.01-22.768 44.047-51.001 44.047h-21.135v37.593H138.38V2.142zm49.742 63.21c13.876 0 21.979-8.238 21.979-19.336 0-12.362-8.652-18.976-22.528-18.976h-21.496v38.312h22.045zM285.787 1.25h25.581l54.055 126.22h-29.009l-11.532-28.105H271.55l-11.532 28.105h-28.313L285.787 1.25zm29.184 73.763l-16.755-40.64-16.755 40.64h33.51zM390.951 15.463h13.835a9.867 9.867 0 0 0-3.5-5.368 9.976 9.976 0 0 0-6.076-2.11 13.05 13.05 0 0 0-8.853 3.552l-4.112-5.15a17.63 17.63 0 0 1 5.908-3.834 17.718 17.718 0 0 1 6.95-1.222 17.308 17.308 0 0 1 6.785 1.175 17.228 17.228 0 0 1 5.779 3.725 17.11 17.11 0 0 1 3.845 5.678 16.998 16.998 0 0 1 1.297 6.721c.054 2.291-.358 4.57-1.213 6.698a16.97 16.97 0 0 1-3.76 5.688 17.11 17.11 0 0 1-5.704 3.766 17.205 17.205 0 0 1-6.735 1.24c-6.536 0-10.634-1.969-14.116-5.668l4.594-4.95a12.848 12.848 0 0 0 4.229 2.94 12.927 12.927 0 0 0 5.052 1.052 9.872 9.872 0 0 0 6.215-2.216 9.76 9.76 0 0 0 3.402-5.622h-13.822v-6.095zM433.207 36.848v-3.58c-10.433 0-16.769-6.44-16.769-14.944 0-8.503 6.376-14.638 16.769-14.638V.573h7.433v3.073c10.353 0 16.782 6.202 16.782 14.638 0 8.437-6.322 14.984-16.782 14.984v3.646l-7.433-.066zm0-26.614c-5.465 0-9.134 3.22-9.134 8.17 0 4.95 3.669 8.21 9.134 8.21v-16.38zm7.433 16.38c5.465 0 9.094-3.166 9.094-8.21 0-5.043-3.616-8.17-9.094-8.17v16.38zM477.311 36.848v-3.58c-10.447 0-16.782-6.44-16.782-14.944 0-8.503 6.389-14.638 16.782-14.638V.573h7.447v3.073c10.34 0 16.782 6.202 16.782 14.638 0 8.437-6.335 14.984-16.782 14.984v3.646l-7.447-.066zm0-26.614c-5.464 0-9.134 3.22-9.134 8.17 0 4.95 3.67 8.21 9.134 8.21v-16.38zm7.447 16.38c5.464 0 9.094-3.166 9.094-8.21 0-5.043-3.656-8.17-9.094-8.17v16.38zM506.656 1.876h25.541V8.45h-18.135v6.827h15.952v6.574h-15.952v7.066h18.376v6.587h-25.782V1.876zM538.09 1.876h7.447v14.638l13.728-14.638h9l-13.782 14.266 14.411 19.362h-8.946l-10.501-14.319-3.91 3.992v10.287h-7.447V1.876zM580.305 8.69h-10.299V1.876h28.045V8.69h-10.299v26.814h-7.447V8.69zM631.95 35.504h-7.353v-22.05l-14.799 22.05h-7.018V1.876h7.353v22.077l14.893-22.077h6.924v33.628zM639.102 1.876h15.71c3.871 0 6.911 1.052 8.853 2.968a7.8 7.8 0 0 1 2.317 5.802 7.77 7.77 0 0 1-1.144 4.279 7.846 7.846 0 0 1-3.302 2.973c3.911 1.49 6.335 3.753 6.335 8.37 0 6.148-5.036 9.222-12.67 9.222h-16.072l-.027-33.614zm14.117 13.587c3.294 0 5.357-1.051 5.357-3.646 0-2.21-1.741-3.46-4.889-3.46h-7.353v7.106h6.885zm1.982 13.547c3.295 0 5.277-1.145 5.277-3.74 0-2.262-1.701-3.659-5.518-3.659h-8.612v7.399h8.853zM673.041 1.876h7.447v13.308h13.741V1.876h7.447v33.628h-7.447V21.997h-13.741v13.507h-7.447V1.876zM708.828 1.876h7.446v11.431h7.206c7.835 0 12.375 4.325 12.375 10.899 0 6.92-4.928 11.298-12.857 11.298h-14.17V1.876zm7.446 17.765v9.183h6.617c3.683 0 5.571-1.584 5.571-4.711 0-2.835-1.888-4.471-5.612-4.471h-6.576zm23.345-17.765h7.46v33.628h-7.46V1.876zM754.231 1.876h25.528V8.45h-18.134v6.827h15.964v6.574h-15.964v7.066H780v6.587h-25.769V1.876zM383.986 48.452h13.795c8.036 0 12.952 4.75 12.952 11.71 0 7.785-6.094 11.83-13.675 11.83h-5.665V82.08h-7.407V48.452zm13.394 16.953c3.723 0 5.893-2.209 5.893-5.19 0-3.313-2.317-5.096-6.041-5.096h-5.759v10.286h5.907zM415.327 48.452h25.527v6.573H422.72v6.827h15.951v6.574H422.72v7.066h18.375v6.653h-25.768V48.453zM493.222 82.079h-46.474V48.452h7.446v26.947h12.054V48.452h7.447v26.947h12.054V48.452h7.447l.026 33.627zM500.375 48.452h25.527v6.573h-18.121v6.827h15.898v6.574h-15.898v7.066h18.362v6.653h-25.768V48.453zM531.809 48.452h7.446v13.307h13.728V48.452h7.447v33.627h-7.447V68.572h-13.728V82.08h-7.446V48.452zM596.739 82.079H589.4v-22.05l-14.827 22.05h-7.018V48.452h7.353v22.076l14.893-22.05h6.911l.027 33.601zM630.691 82.079h-7.446V71.313h-5.813l-7.259 10.766h-8.693l8.264-11.977a10.549 10.549 0 0 1-5.422-4.034 10.436 10.436 0 0 1-1.837-6.478c0-6.973 4.835-11.099 12.764-11.099h15.442V82.08zm-7.446-17.3v-9.66h-7.407c-3.616 0-5.853 1.636-5.853 4.91 0 2.834 2.09 4.75 5.719 4.75h7.541zM395.598 93.603h6.858l14.505 33.867h-7.782l-3.094-7.546h-14.317l-3.094 7.546h-7.581l14.505-33.867zm7.835 19.788l-4.5-10.926-4.5 10.899 9 .027zM421.22 93.842h8.036l8.906 14.213 8.893-14.213h8.036v33.628h-7.393v-21.957l-9.522 14.372h-.215l-9.375-14.226v21.811h-7.366V93.842zM458.641 120.79h3.201c2.504-5.815 3.723-11.524 3.723-23.008V93.79h24.63v27h4.018l-.977 13.693h-6.228v-7.013h-21.162l-.482 7.013h-6.697l-.026-13.693zm14.143-20.267v3.407a42.048 42.048 0 0 1-3.04 16.86h13.045v-20.267h-10.005zM517.785 127.47v-8.929l-4.5-4.818-9.522 13.747h-8.907l13.393-19.069-12.897-14.559h8.839l13.594 15.703V93.842h7.393v15.703l13.595-15.703h8.839l-12.911 14.559 13.393 19.069h-8.893l-9.576-13.747-4.447 4.818v8.929h-7.393zM551.63 93.842h25.528v6.574h-18.134v6.827h15.964v6.653h-15.964v7.053h18.375v6.654H551.63v-33.76zM583.064 93.842h7.447v13.308h13.728V93.842h7.447v33.628h-7.447v-13.494h-13.728v13.494h-7.447V93.842z" fill="#fff"/></svg>