<svg width="52" height="52" viewBox="0 0 52 52" fill="none" xmlns="http://www.w3.org/2000/svg"><path d="M26 0l24.727 17.966-9.445 29.068H10.718L1.273 17.966 26 0z" fill="#1565D8"/><path fill-rule="evenodd" clip-rule="evenodd" d="M19.72 28.887a4.167 4.167 0 0 1 2.947-1.22h6.666a4.167 4.167 0 0 1 4.167 4.166V33.5a.833.833 0 0 1-1.667 0v-1.667a2.5 2.5 0 0 0-2.5-2.5h-6.666a2.5 2.5 0 0 0-2.5 2.5V33.5a.833.833 0 0 1-1.667 0v-1.667c0-1.105.439-2.165 1.22-2.946zM26 19.333a2.5 2.5 0 1 0 0 5 2.5 2.5 0 0 0 0-5zm-4.166 2.5a4.167 4.167 0 1 1 8.333 0 4.167 4.167 0 0 1-8.334 0z" fill="#fff"/></svg>