<svg width="780" height="135" viewBox="0 0 780 135" fill="none" xmlns="http://www.w3.org/2000/svg">
<path d="M35.8539 52.8164H87.3914C82.8913 36.5283 69.1899 24.7115 51.7116 24.7115C39.0951 24.7115 28.2867 29.542 18.7373 38.0187L3.42869 18.9761C14.7327 8.41016 28.8358 0 51.5375 0C90.271 0 117.299 29.1827 117.299 64.8062C117.299 101.135 89.7352 129.612 52.6224 129.612C28.2867 129.612 12.9781 122.28 0 108.494L17.1167 90.05C27.2152 99.1787 36.9388 104.914 51.7116 104.914C69.9131 104.914 83.427 92.565 87.5789 75.7314H35.8539V52.8164Z" fill="white"/>
<path d="M138.38 2.14233H189.917C220.012 2.14233 238.213 19.8675 238.213 45.8299C238.213 74.8397 215.445 89.8768 187.212 89.8768H166.077V127.47H138.38V2.14233ZM188.122 65.3516C201.998 65.3516 210.101 57.1145 210.101 46.0162C210.101 33.6538 201.449 27.0401 187.573 27.0401H166.077V65.3516H188.122Z" fill="white"/>
<path d="M285.787 1.25092H311.368L365.423 127.47H336.414L324.882 99.365H271.55L260.018 127.47H231.705L285.787 1.25092ZM314.971 75.0128L298.216 34.3726L281.461 75.0128H314.971Z" fill="white"/>
<path d="M390.951 15.4629H404.786C404.251 13.3374 403.02 11.449 401.286 10.0951C399.553 8.74115 397.415 7.99858 395.21 7.98428C391.912 8.01054 388.748 9.28056 386.357 11.5373L382.245 6.38742C383.934 4.72625 385.944 3.42188 388.153 2.55283C390.363 1.68379 392.727 1.26806 395.103 1.33067C397.421 1.26415 399.729 1.66394 401.888 2.50602C404.047 3.34811 406.013 4.61512 407.667 6.23093C409.32 7.84675 410.628 9.77803 411.512 11.9088C412.396 14.0395 412.837 16.3257 412.809 18.6301C412.863 20.921 412.451 23.1993 411.596 25.3278C410.742 27.4563 409.463 29.3912 407.836 31.0159C406.21 32.6407 404.269 33.9218 402.132 34.7822C399.994 35.6426 397.703 36.0645 395.397 36.0226C388.861 36.0226 384.763 34.0531 381.281 30.3537L385.875 25.4034C387.07 26.6577 388.508 27.6582 390.104 28.3443C391.699 29.0305 393.418 29.3881 395.156 29.3956C397.423 29.3909 399.618 28.6081 401.371 27.1798C403.123 25.7514 404.325 23.7653 404.773 21.5576H390.951V15.4629Z" fill="white"/>
<path d="M433.207 36.848V33.2684C422.774 33.2684 416.438 26.8277 416.438 18.3243C416.438 9.82103 422.814 3.6864 433.207 3.6864V0.57251H440.64V3.64648C450.993 3.64648 457.422 9.84764 457.422 18.2844C457.422 26.7212 451.1 33.2684 440.64 33.2684V36.9145L433.207 36.848ZM433.207 10.2336C427.742 10.2336 424.073 13.4539 424.073 18.4042C424.073 23.3545 427.742 26.6147 433.207 26.6147V10.2336ZM440.64 26.6147C446.105 26.6147 449.734 23.4476 449.734 18.4042C449.734 13.3607 446.118 10.2336 440.64 10.2336V26.6147Z" fill="white"/>
<path d="M477.311 36.848V33.2684C466.864 33.2684 460.529 26.8277 460.529 18.3243C460.529 9.82103 466.918 3.6864 477.311 3.6864V0.57251H484.758V3.64648C495.098 3.64648 501.54 9.84764 501.54 18.2844C501.54 26.7212 495.205 33.2684 484.758 33.2684V36.9145L477.311 36.848ZM477.311 10.2336C471.847 10.2336 468.177 13.4539 468.177 18.4042C468.177 23.3545 471.847 26.6147 477.311 26.6147V10.2336ZM484.758 26.6147C490.222 26.6147 493.852 23.4476 493.852 18.4042C493.852 13.3607 490.196 10.2336 484.758 10.2336V26.6147Z" fill="white"/>
<path d="M506.656 1.8764H532.197V8.45017H514.062V15.2768H530.014V21.8505H514.062V28.9167H532.438V35.5037H506.656V1.8764Z" fill="white"/>
<path d="M538.09 1.8764H545.537V16.5143L559.265 1.8764H568.265L554.483 16.1417L568.894 35.5037H559.948L549.447 21.1852L545.537 25.1773V35.4638H538.09V1.8764Z" fill="white"/>
<path d="M580.305 8.6897H570.006V1.8764H598.051V8.6897H587.752V35.5037H580.305V8.6897Z" fill="white"/>
<path d="M631.95 35.5037H624.597V13.4537L609.798 35.5037H602.78V1.8764H610.133V23.9531L625.026 1.8764H631.95V35.5037Z" fill="white"/>
<path d="M639.102 1.8764H654.812C658.683 1.8764 661.723 2.92767 663.665 4.84391C664.432 5.60126 665.033 6.50722 665.431 7.50539C665.83 8.50355 666.018 9.57256 665.982 10.6459C666.024 12.152 665.627 13.6381 664.838 14.9249C664.049 16.2117 662.902 17.2443 661.536 17.8983C665.447 19.3887 667.871 21.6509 667.871 26.2685C667.871 32.4165 662.835 35.4904 655.201 35.4904H639.129L639.102 1.8764ZM653.219 15.4631C656.513 15.4631 658.576 14.4118 658.576 11.8169C658.576 9.6079 656.835 8.35702 653.687 8.35702H646.334V15.4631H653.219ZM655.201 29.0098C658.496 29.0098 660.478 27.8654 660.478 25.2705C660.478 23.0083 658.777 21.611 654.96 21.611H646.348V29.0098H655.201Z" fill="white"/>
<path d="M673.041 1.8764H680.488V15.1836H694.229V1.8764H701.676V35.5037H694.229V21.9969H680.488V35.5037H673.041V1.8764Z" fill="white"/>
<path d="M708.828 1.8764H716.274V13.3073H723.48C731.315 13.3073 735.855 17.6322 735.855 24.2059C735.855 31.1257 730.927 35.5037 722.998 35.5037H708.828V1.8764ZM716.274 19.6415V28.8235H722.891C726.574 28.8235 728.462 27.24 728.462 24.1128C728.462 21.2783 726.574 19.6415 722.85 19.6415H716.274ZM739.619 1.8764H747.079V35.5037H739.619V1.8764Z" fill="white"/>
<path d="M754.231 1.8764H779.759V8.45017H761.625V15.2768H777.589V21.8505H761.625V28.9167H780V35.5037H754.231V1.8764Z" fill="white"/>
<path d="M383.986 48.4517H397.781C405.817 48.4517 410.733 53.2023 410.733 60.162C410.733 67.9467 404.639 71.9921 397.058 71.9921H391.393V82.079H383.986V48.4517ZM397.38 65.4051C401.103 65.4051 403.273 63.1961 403.273 60.2152C403.273 56.9017 400.956 55.1186 397.232 55.1186H391.473V65.4051H397.38Z" fill="white"/>
<path d="M415.327 48.4517H440.854V55.0254H422.72V61.852H438.671V68.4258H422.72V75.4919H441.095V82.1455H415.327V48.4517Z" fill="white"/>
<path d="M493.222 82.079H446.748V48.4517H454.194V75.3988H466.248V48.4517H473.695V75.3988H485.749V48.4517H493.196L493.222 82.079Z" fill="white"/>
<path d="M500.375 48.4517H525.902V55.0254H507.781V61.852H523.679V68.4258H507.781V75.4919H526.143V82.1455H500.375V48.4517Z" fill="white"/>
<path d="M531.809 48.4517H539.255V61.7589H552.983V48.4517H560.43V82.079H552.983V68.5722H539.255V82.079H531.809V48.4517Z" fill="white"/>
<path d="M596.739 82.079H589.4V60.0289L574.573 82.079H567.555V48.4517H574.908V70.5283L589.801 48.4783H596.712L596.739 82.079Z" fill="white"/>
<path d="M630.691 82.0789H623.245V71.3133H617.432L610.173 82.0789H601.48L609.744 70.1024C607.54 69.3861 605.634 67.9682 604.322 66.068C603.01 64.1678 602.364 61.891 602.485 59.5897C602.485 52.6167 607.32 48.4915 615.249 48.4915H630.691V82.0789ZM623.245 64.7795V55.1185H615.838C612.222 55.1185 609.985 56.7552 609.985 60.0288C609.985 62.8633 612.075 64.7795 615.704 64.7795H623.245Z" fill="white"/>
<path d="M395.598 93.6028H402.456L416.961 127.47H409.179L406.085 119.924H391.768L388.674 127.47H381.093L395.598 93.6028ZM403.433 113.391L398.933 102.465L394.433 113.364L403.433 113.391Z" fill="white"/>
<path d="M421.22 93.8424H429.256L438.162 108.055L447.055 93.8424H455.091V127.47H447.698V105.513L438.176 119.885H437.961L428.586 105.659V127.47H421.22V93.8424Z" fill="white"/>
<path d="M458.641 120.79H461.842C464.346 114.975 465.565 109.266 465.565 97.7817V93.7896H490.195V120.79H494.213L493.236 134.483H487.008V127.47H465.846L465.364 134.483H458.667L458.641 120.79ZM472.784 100.523V103.93C472.939 109.697 471.904 115.435 469.744 120.79H482.789V100.523H472.784Z" fill="white"/>
<path d="M517.785 127.47V118.541L513.285 113.723L503.763 127.47H494.856L508.249 108.401L495.352 93.8424H504.191L517.785 109.545V93.8424H525.178V109.545L538.773 93.8424H547.612L534.701 108.401L548.094 127.47H539.201L529.625 113.723L525.178 118.541V127.47H517.785Z" fill="white"/>
<path d="M551.63 93.8424H577.158V100.416H559.024V107.243H574.988V113.896H559.024V120.949H577.399V127.603H551.63V93.8424Z" fill="white"/>
<path d="M583.064 93.8424H590.511V107.15H604.239V93.8424H611.686V127.47H604.239V113.976H590.511V127.47H583.064V93.8424Z" fill="white"/>
</svg>
