<svg width="52" height="52" viewBox="0 0 52 52" fill="none" xmlns="http://www.w3.org/2000/svg">
<path d="M2.09543 18.2329L26 0.865247L49.9046 18.2329L40.7738 46.3344H11.2262L2.09543 18.2329Z" stroke="#1565D8" stroke-width="1.4"/>
<path fill-rule="evenodd" clip-rule="evenodd" d="M25.4106 32.4225C25.736 32.748 26.2637 32.748 26.5891 32.4225C26.9145 32.0971 26.9145 31.5695 26.5891 31.244L22.1783 26.8333L31.8332 26.8333C32.2934 26.8333 32.6665 26.4602 32.6665 26C32.6665 25.5397 32.2934 25.1666 31.8332 25.1666L22.1783 25.1666L26.5891 20.7559C26.9145 20.4304 26.9145 19.9028 26.5891 19.5774C26.2637 19.2519 25.736 19.2519 25.4106 19.5774L19.5772 25.4107C19.2518 25.7361 19.2518 26.2638 19.5772 26.5892L25.4106 32.4225Z" fill="#1565D8"/>
</svg>
